<svg xmlns="http://www.w3.org/2000/svg" width="548" height="259" fill="none" viewBox="0 0 548 259">
  <path fill="#801ED7" d="M537.912 140.395c-2.668 0-4.987 1.377-7.203 2.734 0 0-3.879 2.283-5.541 3.249-9.255 5.325-18.859 8.554-29.14 7.711-5.787-.473-11.184-1.892-15.781-5.182-.759-.555-1.477-1.172-2.278-1.83.39-.185.595-.288.801-.391 12.784-5.572 24.522-13.138 35.604-21.856 6.916-5.449 12.949-12.049 17.32-19.677 5.11-8.903 7.757-18.217 6.485-28.005-1.293-9.848-6.28-16.942-15.555-20.479-6.711-2.55-13.873-2.343-21.178-.78-11.677 2.508-21.712 8.532-30.105 17.373-16.027 16.881-22.779 36.394-21.24 58.045.144 2.076.472 4.132.698 6.045a7783.073 7783.073 0 0 1-29.325 14.578 1.047 1.047 0 0 1-.985 0c-1.765-.967-3.386-2.2-5.233-3.023-7.429-3.351-15.555-3.763-23.928-2.961-1.539.144-3.057.37-4.781.597.39-.514.636-.843.903-1.172 9.399-11.782 49.538-61.17 59.717-74.02 0-.042.02-.083.041-.104.308-.431.513-.904.759-1.377.103-.185.226-.37.328-.576a11.35 11.35 0 0 0 .842-2.755c.02-.185.123-.35.143-.555v-.72c0-.473.021-.946-.02-1.398-.041-.453-.164-.905-.267-1.378l-.061-.329c-.041-.164-.062-.329-.103-.493-1.744-5.367-7.511-8.307-12.867-6.56-.246.083-25.446 8.081-57.562 3.332-5.582-.864-10.774 3.043-11.615 8.635-.821 5.593 3.037 10.795 8.619 11.638a163.683 163.683 0 0 0 23.907 1.748c7.388 0 13.38-.453 18.962-1.09-8.414 10.342-39.278 47.558-49.58 60.183-2.052 2.529-4.371 4.873-6.71 7.155-3.468 3.372-7.285 6.251-11.82 7.896-8.229 3.001-15.494-.268-17.977-8.06-1.334-4.236-1.334-8.677-.575-13.18.903-5.449 14.694-59.874 16.11-64.994.041-.124.123-.453.143-.555 0 0 .247-1.131.308-1.83.575-5.552-3.448-10.055-8.988-10.055-5.541 0-9.748 4.318-11.205 10.055 0 0-.8 3.66-1.211 5.058 0 0-.513-1.11-.697-1.48-3.448-7.259-8.866-12.337-17.054-13.962-10.712-2.118-21.178.082-31.253 5.82-9.276 5.283-16.253 12.891-21.856 21.835-4.576 7.3-7.9 15.092-11.122 22.946-3.304 8.04-6.526 16.12-10.158 24.036-3.202 7.012-7.511 13.406-13.339 18.773-2.237 2.077-4.679 3.824-7.613 4.688-3.427 1.007-6.937-.329-8.455-3.29-.718-1.398-1.19-3.022-1.416-4.626-.821-5.387.226-10.857 1.334-16.285 1.888-9.129 4.863-18.731 8.721-27.387 3.797-8.533 7.942-16.963 12.005-25.393.226-.453.39-.885.554-1.337.472-1.028.78-2.138.903-3.29.575-5.53-3.427-10.034-8.968-10.034-.82 0-6.074.885-7.9 1.234-12.723 2.509-15.596 3.393-28.217 2.652-.923-.061-1.826-.164-2.791-.246.082-.453.062-2.077.082-2.303.554-5.325-3.304-9.623-8.598-9.623-5.295 0-9.625 4.277-10.61 9.623 0 .082-.39 1.624-1.005 4.359-2.319 10.157-5.007 20.253-8.619 30.163-4.166 11.453-9.994 23.173-17.505 33.186-3.427 4.585-8.434 8.8-13.031 12.296-.451.329-.944.617-1.662 1.069.226-.452.287-.596.349-.72 6.464-11.35 10.548-23.152 11.964-35.427.39-2.961.677-5.921.759-8.944.205-7.957-.882-15.585-3.981-22.576-6.116-13.756-16.807-21.487-32.732-21.96-7.88-.246-16.027 1.584-23.27 5.532-.37.205-.74.37-1.15.575 0-.164-.02-.205 0-.247 0 0 6.587-24.735 9.891-49.203.677-5.633-3.242-10.383-8.865-10.63-4.945-.205-9.234 3.393-9.87 8.307-4.228 32.692-13.996 72.91-24.072 101.243-5.397 15.175-15.473 27.861-29.735 36.661a23.99 23.99 0 0 1-2.155 1.172c-4.453 2.241-6.567 7.464-4.823 12.152 2.011 5.428 8.27 7.936 13.442 5.387 8.454-4.154 16.13-9.684 22.82-16.922.246-.267.513-.535.82-.864.144.37.246.679.35.967 2.503 6.991 6.792 13.221 12.804 17.477 7.388 5.243 16.09 7.34 25.529 7.587.43 0 .8-.062 1.21-.082l-.06.082c7.407.185 14.856-.617 22.265-2.385 22.512-5.387 42.212-17.765 54.997-37.997 8.537-13.488 14.426-28.416 18.756-43.323.657-2.262 1.252-4.523 1.929-6.908 24.195 1.686 26.493-.967 26.329-.597-1.17 2.55-2.339 5.531-3.427 8.122-6.095 14.66-11.595 30.122-13.893 45.564-1.067 7.196-1.293 14.31.472 21.157 1.991 7.711 6.444 13.2 14.344 15.318 9.789 2.632 19.167.74 27.95-5.942 5.767-4.4 10.302-9.89 14.324-15.832.39-.576.801-1.172 1.314-1.912.41 1.11.554 1.501.985 2.57 1.99 4.914 4.802 9.479 8.639 13.097 9.378 8.821 20.932 11.33 34.558 7.279 8.537-2.529 15.493-7.937 21.547-14.598 1.006-1.111 1.97-2.262 3.058-3.516.287 1.151.513 2.138.78 3.084 1.662 5.819 4.658 10.589 10.158 13.344 7.695 3.845 16.047 4.647 24.872 2.18 5.52-1.543 10.917-3.784 16.314-5.819 9.85-3.722 19.803-5.716 29.961-5.284 2.298.102 4.515.514 6.731 1.377-.554.329-.985.576-1.395.823-6.731 4.235-13.565 8.327-20.173 12.727-9.152 6.107-17.156 13.488-23.209 22.782-6.321 9.664-10.015 19.924-9.502 30.986.493 10.506 4.966 18.607 13.729 23.83 7.408 4.4 15.76 4.852 24.523 2.323 15.001-4.338 26.944-13.282 35.81-26.482 5.499-8.184 9.029-17.066 11.143-26.38 2.36-10.404 2.811-20.644.595-30.657-.39-1.769-.903-3.496-1.396-5.408 10.487-6.045 26.432-12.46 26.432-12.46.328.473.554.802.779 1.131 3.92 5.798 9.317 10.424 15.761 13.324 9.932 4.461 20.726 5.304 31.972 3.906 12.456-1.562 24.051-6.189 34.804-13.57 0 0 6.013-4.195 6.526-9.253.595-5.675-3.509-10.28-9.173-10.28v.041Zm-426.125-32.939c-2.195 15.256-7.798 27.778-18.612 38.264-3.55 3.413-7.532 6.066-12.149 7.464-7.572 2.282-13.913.822-19.064-4.174-4.248-4.133-6.465-9.458-7.142-15.483-1.867-16.983 2.976-32.713 14.96-46.9 2.996-3.557 6.526-6.518 10.59-8.738 9.911-5.387 21.485-2.961 26.923 5.572 2.914 4.585 4.228 9.849 4.515 15.482.164 3.228 0 6.518-.041 8.533l.02-.02Zm191.915 32.034c-3.652 4.75-8.003 8.759-13.297 11.617-10.446 5.634-20.645 3.167-25.919-6.312-2.688-4.832-3.796-10.219-3.899-15.915-.02-1.583.041-3.187.103-4.585.082-1.665.226-3.331.533-4.976 2.319-12.953 7.244-24.18 16.233-33.864 4.022-4.318 8.66-7.813 14.2-9.705 9.112-3.084 17.177-.061 21.753 8.02 2.668 4.749 3.899 10.054 3.94 15.687.082 14.455-4.248 27.881-13.647 40.054v-.021Zm91.71 91.107c-1.026 1.048-2.134 2.056-3.324 2.92-13.483 9.889-25.714 3.701-25.242-8.986.226-5.736 2.525-10.897 5.849-15.811 4.761-7.053 10.979-12.666 17.874-17.601 7.141-5.119 22.491-13.899 22.717-14.002a29.79 29.79 0 0 1 1.375 9.705c-.349 16.613-6.813 31.212-19.228 43.775h-.021Zm75.806-100.606c-.308.144-.595.267-1.129.514-.062-2.426-.287-4.75-.185-7.073.554-13.468 5.213-25.907 14.201-37.052a27.996 27.996 0 0 1 3.632-3.68c7.491-6.21 15.863-10.733 23.374-8.122 4.433 1.542 6.977 5.778 6.71 10.918-.287 5.49-2.77 10.26-6.176 14.722-4.741 6.189-10.651 11.165-16.91 15.709-7.47 5.407-15.329 10.034-23.538 14.064h.021Z"/>
</svg>
